<svg width="32" height="32" viewBox="0 0 32 32" fill="none" xmlns="http://www.w3.org/2000/svg">
<circle cx="16" cy="16" r="16" fill="#C6754D"/>
<path d="M20.8056 19.2678C20.8059 19.2657 20.806 19.2654 20.8056 19.2676L20.8056 19.2678Z" fill="#FCF9F7"/>
<path fill-rule="evenodd" clip-rule="evenodd" d="M9.75916 10.9575C10.1048 11.0121 10.4139 11.1535 10.6835 11.38C10.9327 11.5893 11.0713 11.8668 11.1059 12.1987H11.2903L11.4431 10.4169C10.5617 10.1322 9.83409 9.99377 9.25592 9.99377C7.71651 9.99377 6.36266 10.5844 5.18773 11.7786C4.02237 12.9633 3.44531 14.3227 3.44531 15.8636C3.44531 17.083 3.86772 18.1734 4.72002 19.1408C5.58213 20.1081 6.54976 20.5786 7.62731 20.5786C8.51704 20.5786 9.34769 20.3685 10.1219 19.9479C10.7161 19.6251 11.4003 19.0806 12.0458 18.4363L12.2655 18.2171L12.3332 18.5199C12.4466 19.027 12.7177 19.453 13.1543 19.8011C13.7571 20.2739 14.5795 20.5194 15.6394 20.5194C16.6986 20.5194 17.5984 20.279 18.3463 19.8056L18.3471 19.8051C18.7143 19.5756 19.0156 19.2482 19.2499 18.8172C19.482 18.3901 19.61 17.8889 19.629 17.309L19.6365 17.0801L19.8538 17.1525C19.8885 17.1641 19.9469 17.1733 20.0366 17.1733C20.4338 17.1733 20.8271 17.0128 21.2196 16.669L21.7102 16.2403L21.4917 16.8586L20.4233 19.646L20.4226 19.6477C20.3083 19.9283 20.1658 20.1503 19.9862 20.294L19.9834 20.2963L19.9805 20.2984C19.788 20.4396 19.506 20.4943 19.1688 20.4943H19.1324V20.5672H21.6926V20.4943H21.6265C21.2761 20.4943 21.0203 20.4806 20.8857 20.4439C20.8152 20.4247 20.7435 20.3927 20.6877 20.337C20.6275 20.2768 20.597 20.1996 20.597 20.1162C20.597 19.9978 20.6399 19.8217 20.7083 19.6065C20.7426 19.4939 20.768 19.408 20.7847 19.3484C20.7931 19.3183 20.7989 19.2962 20.8025 19.2813C20.8032 19.2784 20.8038 19.276 20.8043 19.274V19.2551L21.8353 16.5993H25.8009L26.8509 19.348L26.8521 19.3515C26.9017 19.5003 26.9394 19.6185 26.965 19.7053C26.9777 19.7485 26.9879 19.7857 26.995 19.8157C27.0008 19.8398 27.0089 19.8762 27.0089 19.9089C27.0089 20.1004 26.929 20.2609 26.7669 20.364C26.618 20.4588 26.4164 20.4943 26.1866 20.4943H25.8837V20.5672H29.3323V20.4943H28.9701C28.7254 20.4943 28.5109 20.4329 28.3513 20.2866L28.3458 20.2815L28.3408 20.2761C28.2162 20.1402 28.0991 19.9508 27.9869 19.7161L27.9839 19.7099L24.4163 10.3705C24.4139 10.3742 24.4115 10.378 24.409 10.3818C24.3792 10.428 24.3362 10.4891 24.2812 10.564L24.2796 10.5663L24.2778 10.5685C24.1661 10.7107 24.0446 10.8524 23.9133 10.9938L23.9112 10.9961L23.9089 10.9984C23.8424 11.0649 23.7825 11.1198 23.7302 11.1605C23.7087 11.1772 23.6836 11.1955 23.656 11.2117L22.1765 15.0719L22.171 15.0819C22.1132 15.1879 22.0627 15.2873 22.0152 15.3813L22.0023 15.4069C21.96 15.4909 21.9192 15.5718 21.8785 15.6467C21.7892 15.811 21.6923 15.9622 21.5553 16.0814C21.2935 16.309 20.9709 16.4194 20.5993 16.4194C20.5211 16.4194 20.4112 16.4024 20.2795 16.3751C20.1443 16.347 19.9742 16.3054 19.7703 16.2507L19.7693 16.2504C19.3834 16.1443 19.0589 16.0937 18.793 16.0937C17.9746 16.0937 17.2015 16.6981 16.4935 18.0366L16.5838 18.0624C16.8405 17.6566 17.0916 17.3494 17.339 17.1515C17.6214 16.9256 17.9721 16.818 18.3784 16.818C18.6729 16.818 18.9187 16.8527 19.0967 16.9386C19.1881 16.9827 19.2676 17.0432 19.3241 17.125C19.3814 17.2081 19.408 17.3031 19.408 17.4034C19.408 18.2714 19.1267 18.9376 18.5377 19.363C17.9684 19.7741 17.2446 19.9727 16.3797 19.9727C15.5094 19.9727 14.8061 19.7365 14.2923 19.2442C13.787 18.7599 13.529 18.1782 13.529 17.507C13.529 17.0394 13.6227 16.6088 13.8127 16.2182L13.8141 16.2154L13.8156 16.2126C13.9046 16.0458 14.0255 15.8929 14.1758 15.7532C14.3266 15.6126 14.4604 15.499 14.5766 15.4145L14.5794 15.4125L14.5823 15.4106C14.7148 15.3222 14.8896 15.2383 15.1015 15.1574C15.3069 15.0695 15.478 15.0037 15.6131 14.9618C15.7471 14.9106 15.932 14.8508 16.1658 14.7826C16.3361 14.7258 16.4722 14.6796 16.5745 14.6438L16.5935 14.4276C15.7224 14.3801 15.0179 14.1905 14.4941 13.8446L14.4928 13.8437C13.9423 13.4732 13.6475 12.9901 13.6475 12.3991C13.6475 11.8192 13.8285 11.3568 14.2143 11.0448C14.5931 10.7384 15.1421 10.5997 15.8319 10.5997C16.6419 10.5997 17.277 10.7137 17.7151 10.9625C18.1193 11.192 18.3489 11.5332 18.3933 11.9716L18.5511 11.9815L18.701 10.5323C18.1822 10.2185 17.4583 10.053 16.5129 10.053C15.528 10.053 14.6856 10.3105 13.9778 10.82C13.292 11.3206 12.9528 11.9897 12.9528 12.8433C12.9528 13.3521 13.1233 13.7772 13.4653 14.129C13.8127 14.4666 14.3012 14.6579 14.951 14.6862L16.0158 14.7455L14.9709 15.0255C14.2773 15.1379 13.6517 15.4563 13.092 15.9875L13.0909 15.9886C12.9488 16.1211 12.8252 16.2627 12.7201 16.4137L12.3658 17.1801C12.3177 17.3606 12.288 17.5509 12.2768 17.7511L12.2734 17.8112L12.2331 17.8559C11.7153 18.4302 11.0889 18.9555 10.5204 19.257C9.85326 19.6107 9.23323 19.7951 8.6637 19.7951C7.75751 19.7951 6.82449 19.4303 5.86775 18.7254L5.86659 18.7245C5.36613 18.3492 4.95545 17.8169 4.63049 17.1365C4.30205 16.4488 4.14003 15.6679 4.14003 14.7976C4.14003 13.5853 4.58489 12.6161 5.47819 11.9098C6.35904 11.2133 7.39384 10.8662 8.57487 10.8662C9.04347 10.8662 9.43919 10.8959 9.75916 10.9575ZM21.9404 16.3192H25.6639L23.8192 11.4342L21.9404 16.3192Z" fill="#FCF9F7"/>
</svg>
