<svg width="105" height="104" viewBox="0 0 105 104" fill="none" xmlns="http://www.w3.org/2000/svg">
<path d="M68.0519 62.5593C68.0529 62.5525 68.0533 62.5515 68.052 62.5587L68.0519 62.5593Z" fill="#2B1105"/>
<path fill-rule="evenodd" clip-rule="evenodd" d="M32.186 35.5772C33.3083 35.7544 34.3118 36.2135 35.1872 36.9488C35.9963 37.6285 36.4465 38.5294 36.5588 39.607H37.1575L37.6533 33.8218C34.7917 32.8975 32.4293 32.4481 30.5521 32.4481C25.5539 32.4481 21.1582 34.3659 17.3434 38.2432C13.5596 42.0895 11.686 46.5035 11.686 51.5064C11.686 55.4655 13.0575 59.0059 15.8248 62.1468C18.6239 65.2876 21.7657 66.8152 25.2643 66.8152C28.1531 66.8152 30.8501 66.1329 33.3639 64.7674C35.293 63.7195 37.5144 61.9514 39.6105 59.8595L40.3236 59.1478L40.5436 60.1311C40.9118 61.7774 41.792 63.1606 43.2096 64.2908C45.1668 65.8258 47.8368 66.623 51.2781 66.623C54.7172 66.623 57.6386 65.8423 60.067 64.3054L60.0696 64.3037C61.2618 63.5586 62.2402 62.4958 63.0009 61.0962C63.7545 59.7095 64.17 58.0821 64.2318 56.1992L64.2561 55.4561L64.9615 55.6912C65.0742 55.7288 65.264 55.7589 65.5553 55.7589C66.8447 55.7589 68.1217 55.2377 69.396 54.1213L70.9891 52.7294L70.2795 54.7369L66.8107 63.7873L66.8085 63.7927C66.4373 64.7039 65.9747 65.4247 65.3915 65.8913L65.3824 65.8986L65.373 65.9054C64.748 66.3638 63.8325 66.5416 62.7376 66.5416H62.6192V66.7783H70.9318V66.5416H70.7174C69.5795 66.5416 68.7491 66.497 68.3121 66.3778C68.0832 66.3154 67.8502 66.2116 67.6692 66.0306C67.4738 65.8352 67.3746 65.5845 67.3746 65.3139C67.3746 64.9294 67.5139 64.3578 67.7361 63.659C67.8474 63.2933 67.9298 63.0146 67.984 62.8209C68.0113 62.7233 68.0303 62.6515 68.042 62.603C68.0443 62.5936 68.0461 62.5857 68.0476 62.5793V62.5181L71.3953 53.8952H84.2707L87.6801 62.8198L87.6839 62.8311C87.8449 63.3141 87.9675 63.6979 88.0503 63.9797C88.0917 64.1201 88.1247 64.2407 88.1479 64.3382C88.1666 64.4165 88.1931 64.5347 88.1931 64.6409C88.1931 65.2625 87.9336 65.7836 87.4074 66.1184C86.9238 66.4261 86.2693 66.5416 85.5233 66.5416H84.5397V66.7783H95.7365V66.5416H94.5606C93.7663 66.5416 93.0697 66.3421 92.5514 65.867L92.5336 65.8507L92.5173 65.833C92.113 65.3919 91.7327 64.7769 91.3683 64.015L91.3586 63.9946L79.7754 33.6712C79.7676 33.6834 79.7597 33.6957 79.7517 33.7081C79.6548 33.8579 79.5151 34.0564 79.3367 34.2996L79.3313 34.307L79.3256 34.3143C78.963 34.7757 78.5684 35.236 78.1422 35.695L78.1352 35.7025L78.128 35.7098C77.9119 35.9258 77.7174 36.104 77.5475 36.2361C77.4778 36.2903 77.3962 36.3499 77.3066 36.4024L72.5029 48.9358L72.4852 48.9683C72.2974 49.3124 72.1335 49.6351 71.9794 49.9405L71.9376 50.0235C71.8 50.2963 71.6675 50.559 71.5355 50.802C71.2456 51.3355 70.9307 51.8267 70.486 52.2134C69.6361 52.9524 68.5888 53.311 67.382 53.311C67.1281 53.311 66.7712 53.2559 66.3439 53.1672C65.9047 53.076 65.3527 52.9409 64.6905 52.7632L64.6871 52.7623C63.4344 52.4178 62.3807 52.2534 61.5173 52.2534C58.8601 52.2534 56.3501 54.2159 54.0514 58.5618L54.3446 58.6455C55.178 57.3279 55.9932 56.3306 56.7963 55.6882C57.7134 54.9545 58.852 54.6052 60.1713 54.6052C61.1276 54.6052 61.9254 54.7177 62.5035 54.9968C62.8001 55.14 63.0583 55.3364 63.2416 55.6018C63.428 55.8717 63.5141 56.1804 63.5141 56.5058C63.5141 59.3242 62.6007 61.4871 60.6883 62.8682C58.8401 64.2031 56.49 64.848 53.6817 64.848C50.8561 64.848 48.5725 64.0811 46.9045 62.4826C45.2638 60.9102 44.4262 59.0216 44.4262 56.8423C44.4262 55.3241 44.7304 53.9261 45.3473 52.6579L45.3518 52.6486L45.3567 52.6395C45.6454 52.0981 46.038 51.6015 46.5262 51.1481C47.0157 50.6913 47.4501 50.3227 47.8273 50.0484L47.8364 50.0417L47.8458 50.0354C48.2762 49.7485 48.8437 49.4762 49.5317 49.2136C50.1986 48.928 50.7542 48.7145 51.1929 48.5784C51.6277 48.4122 52.2283 48.2181 52.9875 47.9965C53.5403 47.8122 53.9821 47.6621 54.3142 47.5459L54.3761 46.844C51.5478 46.6897 49.2602 46.0741 47.5594 44.9509L47.5554 44.9482C45.768 43.7452 44.8107 42.1766 44.8107 40.2578C44.8107 38.3749 45.3985 36.8737 46.651 35.8607C47.881 34.8658 49.6635 34.4153 51.9031 34.4153C54.5332 34.4153 56.5953 34.7856 58.0176 35.5933C59.3299 36.3385 60.0755 37.4463 60.2195 38.8698L60.7319 38.9019L61.2187 34.1965C59.5342 33.1778 57.1839 32.6404 54.1143 32.6404C50.9165 32.6404 48.1813 33.4765 45.8831 35.1307C43.6565 36.7562 42.5551 38.9284 42.5551 41.6999C42.5551 43.352 43.109 44.7324 44.2193 45.8744C45.3472 46.9706 46.9332 47.5917 49.0429 47.6835L52.5002 47.8761L49.1076 48.7851C46.8556 49.1503 44.8243 50.184 43.0072 51.9088L43.0036 51.9122C42.5421 52.3424 42.1408 52.8022 41.7996 53.2926L40.6494 55.7808C40.4931 56.3669 40.3969 56.9847 40.3604 57.6348L40.3495 57.83L40.2185 57.9752C38.5371 59.8398 36.5034 61.5452 34.6576 62.524C32.4916 63.6727 30.4784 64.2712 28.6293 64.2712C25.687 64.2712 22.6576 63.087 19.5513 60.7981L19.5475 60.7953C17.9226 59.5766 16.5892 57.8483 15.5341 55.6392C14.4677 53.4065 13.9417 50.8711 13.9417 48.0453C13.9417 44.109 15.3861 40.9623 18.2864 38.669C21.1464 36.4076 24.5062 35.2806 28.3408 35.2806C29.8623 35.2806 31.1471 35.3771 32.186 35.5772ZM71.7365 52.9855H83.8259L77.8366 37.1251L71.7365 52.9855Z" fill="#2B1105"/>
<circle cx="52.5" cy="52" r="51.3067" stroke="#2B1105" stroke-width="1.38667"/>
</svg>
