<svg width="200" height="101" viewBox="0 0 200 101" fill="none" xmlns="http://www.w3.org/2000/svg">
<path d="M26.9399 30.0635C28.6376 30.8363 30.2402 32.4502 31.1015 34.967C33.4204 41.7434 40.831 46.361 47.2529 42.8519C49.7972 41.4616 54.1871 42.9646 55.8412 47.7991C58.16 54.5755 65.5706 59.193 71.9929 55.6842C72.6486 55.3256 73.4268 55.1596 74.2497 55.193V60.0142C71.7791 59.2322 69.0884 59.35 66.552 60.7362C64.0077 62.1267 59.6178 60.6238 57.9637 55.7893C55.6443 49.0127 48.2339 44.3951 41.812 47.9042C39.2677 49.2945 34.8781 47.7915 33.2237 42.957C32.0977 39.6665 29.771 36.885 26.9399 35.2958V30.0635Z" fill="#2B1105"/>
<path d="M31.4604 26.6719C33.5459 28.3033 35.2187 30.6128 36.1209 33.2492C37.7753 38.0837 42.1649 39.5866 44.7092 38.1963C51.1311 34.6873 58.5416 39.3048 60.8604 46.0812C62.515 50.9157 66.9044 52.4187 69.4493 51.0284C71.0196 50.1701 72.6498 49.798 74.2498 49.8247V26.6719H31.4604Z" fill="#2B1105"/>
<path d="M26.9399 42.1973V47.3078C28.3855 48.7901 29.5375 50.6267 30.2324 52.6571C31.8868 57.4914 36.2764 58.9944 38.8207 57.6044C45.2425 54.0951 52.6532 58.7127 54.9722 65.4893C56.6263 70.3238 61.0162 71.8267 63.5605 70.4363C67.1711 68.4633 71.0942 69.0596 74.2497 71.1636V65.8225C72.4847 64.7392 70.5064 64.6203 69.0958 65.3912C62.6735 68.9005 55.2629 64.2829 52.9442 57.5063C51.2898 52.672 46.9002 51.169 44.3559 52.5593C37.934 56.0686 30.5233 51.4508 28.2044 44.6745C27.8778 43.72 27.4446 42.8954 26.9399 42.1973Z" fill="#2B1105"/>
<path d="M54.8719 73.9818C52.6664 72.342 50.892 69.9515 49.9528 67.2072C48.2985 62.3728 43.9089 60.8693 41.3645 62.2598C36.1068 65.133 30.1863 62.5584 26.9399 57.812V73.9818H54.8719Z" fill="#2B1105"/>
<path fill-rule="evenodd" clip-rule="evenodd" d="M94.4682 36.7515C96.8873 36.7515 99.0003 37.1058 100.808 37.8143C102.616 38.5228 104.119 39.4998 105.316 40.7458C106.512 41.9674 107.405 43.3722 107.99 44.9601C108.601 46.5238 108.907 48.1482 108.907 49.8341V50.6402C108.907 52.2526 108.601 53.8405 107.99 55.4044C107.405 56.9678 106.512 58.3848 105.316 59.6553C104.119 60.9254 102.616 61.9397 100.808 62.6967C99.0003 63.4543 96.8873 63.833 94.4682 63.833H84.7939V36.7515H94.4682ZM94.7982 58.9954H89.9977V41.5887H94.7982C96.1908 41.5887 97.4247 41.7842 98.4995 42.1752C99.5987 42.5661 100.527 43.1401 101.285 43.8975C102.042 44.6549 102.616 45.5708 103.007 46.6458C103.422 47.6965 103.63 48.8935 103.63 50.2371C103.63 51.532 103.422 52.7168 103.007 53.7917C102.616 54.8421 102.042 55.7583 101.285 56.5402C100.527 57.3222 99.5987 57.9328 98.4995 58.3726C97.4247 58.788 96.1908 58.9954 94.7982 58.9954Z" fill="#2B1105"/>
<path d="M112.761 62.0374C114.031 63.552 115.815 64.3095 118.111 64.3095H118.331C119.87 64.3095 121.153 63.9674 122.179 63.283C123.205 62.5992 123.974 61.5854 124.487 60.2416C124.629 59.8703 124.751 59.4735 124.854 59.0517V63.6862H128.885V43.751H123.791V55.5143C123.791 56.8093 123.413 57.8353 122.655 58.5928C121.922 59.3499 120.969 59.7286 119.796 59.7286C118.624 59.7286 117.695 59.3743 117.011 58.6655C116.327 57.9329 115.985 56.9557 115.985 55.7339V43.751H110.892V55.2942C110.892 58.2751 111.514 60.5223 112.761 62.0374Z" fill="#2B1105"/>
<path d="M132.903 63.6862V43.7875H136.935V48.6921C137.053 48.1813 137.199 47.707 137.374 47.269C137.912 45.901 138.706 44.8747 139.756 44.1909C140.832 43.5067 142.163 43.1646 143.751 43.1646H143.971C146.341 43.1646 148.136 43.9342 149.358 45.4734C150.579 46.9879 151.19 49.2601 151.19 52.2896V63.6862H146.096V51.8497C146.096 50.6281 145.742 49.6389 145.034 48.8815C144.349 48.124 143.397 47.7453 142.175 47.7453C140.929 47.7453 139.915 48.1362 139.134 48.918C138.376 49.6754 137.998 50.7014 137.998 51.9964V63.6862H132.903Z" fill="#2B1105"/>
<path fill-rule="evenodd" clip-rule="evenodd" d="M159.231 63.5033C160.527 64.0895 162.029 64.3829 163.739 64.3829C165.376 64.3829 166.83 64.1017 168.1 63.5399C169.395 62.9781 170.457 62.1839 171.288 61.1579C172.119 60.132 172.681 58.9346 172.974 57.5664H168.283C168.063 58.2996 167.562 58.9224 166.781 59.4354C165.999 59.924 164.985 60.1686 163.739 60.1686C162.493 60.1686 161.467 59.8996 160.661 59.3622C159.855 58.8004 159.256 58.0428 158.865 57.09C158.605 56.4407 158.432 55.7325 158.344 54.9648H173.304V53.1325C173.304 51.3734 172.937 49.7366 172.204 48.2218C171.472 46.6828 170.372 45.4491 168.906 44.5207C167.465 43.568 165.669 43.0913 163.519 43.0913C161.882 43.0913 160.441 43.3846 159.195 43.971C157.949 44.5328 156.899 45.3024 156.044 46.2795C155.213 47.2325 154.578 48.3318 154.138 49.5778C153.723 50.7992 153.515 52.0697 153.515 53.3892V54.0853C153.515 55.3558 153.723 56.6014 154.138 57.8232C154.578 59.0444 155.213 60.1564 156.044 61.1579C156.899 62.1351 157.961 62.9171 159.231 63.5033ZM158.432 51.8498C158.529 51.29 158.674 50.7769 158.865 50.3106C159.09 49.7819 159.368 49.3214 159.7 48.9284C159.981 48.595 160.302 48.3106 160.661 48.0751C161.442 47.5623 162.395 47.3058 163.519 47.3058C164.643 47.3058 165.571 47.5501 166.304 48.0386C167.062 48.5272 167.624 49.2235 167.99 50.1275C168.082 50.3552 168.163 50.5945 168.232 50.8455C168.266 50.967 168.296 51.0911 168.324 51.2181C168.369 51.4217 168.407 51.6322 168.438 51.8498H158.432Z" fill="#2B1105"/>
</svg>
