<svg width="240" height="82" viewBox="0 0 240 82" fill="none" xmlns="http://www.w3.org/2000/svg">
<path d="M73.0176 56.1495L75.3132 55.5757V31.092L73.0176 30.5182V29.9443H83.3468C87.2232 29.9443 90.0671 30.5692 91.8778 31.8189C93.7142 33.0431 94.6321 34.6498 94.6321 36.639C94.6321 38.0164 94.2367 39.1258 93.4462 39.9672C92.6558 40.8089 91.6484 41.4337 90.4239 41.8419C89.1234 42.301 87.7206 42.5431 86.2158 42.5686V42.7601C88.0778 42.8365 89.6972 43.1169 91.0746 43.6015C92.477 44.0606 93.6374 44.775 94.5556 45.7438C95.4993 46.713 95.9712 47.9502 95.9712 49.4546C95.9712 51.7247 95.0402 53.5098 93.1783 54.8107C91.3167 56.0858 88.2944 56.7233 84.1117 56.7233H73.0176V56.1495ZM83.3468 42.1863C84.1886 42.1863 84.9662 41.9565 85.6802 41.4974C86.4201 41.0128 87.0066 40.3498 87.4402 39.5084C87.8993 38.6412 88.1287 37.6847 88.1287 36.639C88.1287 35.5169 87.8993 34.5223 87.4402 33.6551C87.0066 32.788 86.4201 32.1122 85.6802 31.6276C84.9662 31.143 84.1886 30.9007 83.3468 30.9007H81.6254V42.1863H83.3468ZM84.1117 55.7668C85.693 55.7668 86.9811 55.2058 87.9758 54.0836C88.9705 52.9615 89.4675 51.4185 89.4675 49.4546C89.4675 47.4911 88.9705 45.9481 87.9758 44.8259C86.9811 43.7038 85.693 43.1424 84.1117 43.1424H81.6254V55.7668H84.1117Z" fill="#2B1105"/>
<path d="M96.7241 56.1495L99.0197 55.5757V31.092L96.7241 30.5182V29.9443H101.698C103.993 29.9443 105.14 31.092 105.14 33.3873V55.5757L107.436 56.1495V56.7233H96.7241V56.1495Z" fill="#2B1105"/>
<path d="M117.951 57.2969C114.788 57.2969 112.301 56.4045 110.491 54.619C108.705 52.8084 107.813 50.3217 107.813 47.1592C107.813 43.9967 108.705 41.5227 110.491 39.7376C112.301 37.927 114.788 37.0215 117.951 37.0215C121.113 37.0215 123.587 37.927 125.372 39.7376C127.183 41.5227 128.088 43.9967 128.088 47.1592C128.088 50.3217 127.183 52.8084 125.372 54.619C123.587 56.4045 121.113 57.2969 117.951 57.2969ZM117.951 56.5319C118.971 56.5319 119.825 55.8176 120.514 54.3896C121.228 52.9613 121.585 50.551 121.585 47.1592C121.585 43.7673 121.228 41.3571 120.514 39.9287C119.825 38.5008 118.971 37.7864 117.951 37.7864C116.93 37.7864 116.063 38.5008 115.349 39.9287C114.66 41.3571 114.316 43.7673 114.316 47.1592C114.316 50.551 114.66 52.9613 115.349 54.3896C116.063 55.8176 116.93 56.5319 117.951 56.5319Z" fill="#2B1105"/>
<path d="M138.239 57.2969C136.658 57.2969 135.243 56.9528 133.993 56.264C133.381 55.9326 132.884 55.5755 132.501 55.1928C132.093 55.7539 131.647 56.1875 131.162 56.4937C130.932 56.6466 130.678 56.7868 130.397 56.9146H129.44V50.4109H130.971C131.302 51.482 131.787 52.4767 132.424 53.3949C133.776 55.3588 135.46 56.3404 137.474 56.3404C138.546 56.3404 139.349 56.0856 139.884 55.5755C140.445 55.0399 140.726 54.2749 140.726 53.2802C140.726 52.4385 140.343 51.7372 139.578 51.1762C138.839 50.5896 137.666 49.8753 136.059 49.0339C134.681 48.345 133.559 47.733 132.692 47.1974C131.851 46.6364 131.124 45.9479 130.512 45.1316C129.925 44.2902 129.632 43.3082 129.632 42.1861C129.632 40.6558 130.282 39.4187 131.583 38.4753C132.909 37.5061 134.937 37.0215 137.666 37.0215C139.017 37.0215 140.267 37.3787 141.415 38.0926C141.976 38.4243 142.46 38.7684 142.868 39.1256C143.2 38.6664 143.646 38.2328 144.207 37.8247C144.641 37.5698 144.896 37.4296 144.972 37.4041H145.929V43.9075H144.399C144.016 42.8109 143.544 41.8289 142.983 40.9617C141.708 38.9726 140.191 37.9779 138.431 37.9779C137.742 37.9779 137.155 38.2328 136.671 38.7429C136.186 39.253 135.944 39.8905 135.944 40.6558C135.944 41.625 136.352 42.441 137.168 43.104C137.984 43.7418 139.221 44.4813 140.879 45.3231C142.231 46.0116 143.302 46.6236 144.092 47.1592C144.909 47.6693 145.597 48.3068 146.158 49.0721C146.745 49.8371 147.038 50.7298 147.038 51.75C147.038 55.448 144.105 57.2969 138.239 57.2969Z" fill="#2B1105"/>
<path d="M156.986 57.2969C155.405 57.2969 153.99 56.9528 152.74 56.264C152.128 55.9326 151.631 55.5755 151.248 55.1928C150.84 55.7539 150.394 56.1875 149.909 56.4937C149.68 56.6466 149.424 56.7868 149.144 56.9146H148.188V50.4109H149.718C150.049 51.482 150.534 52.4767 151.172 53.3949C152.523 55.3588 154.206 56.3404 156.221 56.3404C157.292 56.3404 158.096 56.0856 158.631 55.5755C159.192 55.0399 159.473 54.2749 159.473 53.2802C159.473 52.4385 159.091 51.7372 158.325 51.1762C157.586 50.5896 156.413 49.8753 154.806 49.0339C153.429 48.345 152.306 47.733 151.439 47.1974C150.598 46.6364 149.871 45.9479 149.259 45.1316C148.672 44.2902 148.379 43.3082 148.379 42.1861C148.379 40.6558 149.029 39.4187 150.33 38.4753C151.656 37.5061 153.683 37.0215 156.413 37.0215C157.764 37.0215 159.014 37.3787 160.162 38.0926C160.723 38.4243 161.207 38.7684 161.615 39.1256C161.947 38.6664 162.393 38.2328 162.954 37.8247C163.388 37.5698 163.643 37.4296 163.719 37.4041H164.676V43.9075H163.145C162.763 42.8109 162.291 41.8289 161.73 40.9617C160.455 38.9726 158.937 37.9779 157.178 37.9779C156.489 37.9779 155.903 38.2328 155.418 38.7429C154.933 39.253 154.691 39.8905 154.691 40.6558C154.691 41.625 155.099 42.441 155.915 43.104C156.731 43.7418 157.968 44.4813 159.626 45.3231C160.978 46.0116 162.049 46.6236 162.84 47.1592C163.655 47.6693 164.344 48.3068 164.905 49.0721C165.492 49.8371 165.785 50.7298 165.785 51.75C165.785 55.448 162.852 57.2969 156.986 57.2969Z" fill="#2B1105"/>
<path d="M176.88 57.2969C173.718 57.2969 171.232 56.4045 169.421 54.619C167.635 52.8084 166.743 50.3217 166.743 47.1592C166.743 43.9967 167.635 41.5227 169.421 39.7376C171.232 37.927 173.718 37.0215 176.88 37.0215C180.043 37.0215 182.517 37.927 184.302 39.7376C186.113 41.5227 187.018 43.9967 187.018 47.1592C187.018 50.3217 186.113 52.8084 184.302 54.619C182.517 56.4045 180.043 57.2969 176.88 57.2969ZM176.88 56.5319C177.901 56.5319 178.755 55.8176 179.444 54.3896C180.158 52.9613 180.515 50.551 180.515 47.1592C180.515 43.7673 180.158 41.3571 179.444 39.9287C178.755 38.5008 177.901 37.7864 176.88 37.7864C175.861 37.7864 174.993 38.5008 174.279 39.9287C173.59 41.3571 173.246 43.7673 173.246 47.1592C173.246 50.551 173.59 52.9613 174.279 54.3896C174.993 55.8176 175.861 56.5319 176.88 56.5319Z" fill="#2B1105"/>
<path d="M188.18 56.1493L190.475 55.5755V38.7429L188.18 38.1691V37.5953H191.623C193.127 37.5953 194.313 38.0799 195.18 39.0491C195.512 39.4314 195.792 39.9033 196.022 40.4643C196.404 39.7503 196.813 39.1765 197.246 38.7429C198.394 37.5953 199.707 37.0215 201.186 37.0215C202.666 37.0215 203.967 37.3532 205.089 38.0162C206.211 38.6537 207.078 39.5337 207.69 40.6558C208.072 39.916 208.481 39.3167 208.914 38.8576C210.087 37.6335 211.401 37.0215 212.854 37.0215C214.206 37.0215 215.418 37.3018 216.489 37.8629C217.585 38.4243 218.427 39.1893 219.014 40.1585C219.626 41.1277 219.932 42.1861 219.932 43.3337V55.5755L222.227 56.1493V56.7231H217.254C214.958 56.7231 213.811 55.5755 213.811 53.2802V43.3337C213.811 41.676 213.556 40.4388 213.046 39.6229C212.536 38.7811 211.962 38.3602 211.324 38.3602C210.585 38.3602 209.832 38.8703 209.067 39.8905C208.761 40.3751 208.493 40.8852 208.264 41.4208V55.5755L210.559 56.1493V56.7231H199.848V56.1493L202.143 55.5755V43.3337C202.143 41.676 201.888 40.4388 201.378 39.6229C200.868 38.7811 200.294 38.3602 199.656 38.3602C198.917 38.3602 198.164 38.8703 197.399 39.8905C197.093 40.3751 196.825 40.8852 196.596 41.4208V55.5755L198.891 56.1493V56.7231H188.18V56.1493Z" fill="#2B1105"/>
<path fill-rule="evenodd" clip-rule="evenodd" d="M41.8792 64.0278C41.6324 64.0763 41.3765 64.0926 41.117 64.0728C33.1037 63.4646 25.5188 59.0384 21.1973 51.5535C16.8757 44.0682 16.8349 35.2862 20.3153 28.0422C20.8205 26.9905 21.9159 26.3581 23.0793 26.4464C26.0655 26.673 28.9923 27.4298 31.7128 28.6776C33.7656 24.675 36.8027 21.2604 40.5046 18.7534C41.4707 18.0991 42.7344 18.0991 43.7004 18.7534C47.3521 21.2263 50.3567 24.5824 52.408 28.5149C55.0254 27.3639 57.825 26.663 60.6792 26.4464C61.8427 26.3581 62.9379 26.9905 63.4431 28.0422C66.9234 35.2862 66.8827 44.0682 62.5613 51.5535C58.2395 59.0384 50.6547 63.4646 42.6413 64.0728C42.3818 64.0926 42.1259 64.0763 41.8792 64.0278ZM47.7503 59.4901C52.5539 57.8565 56.8023 54.5414 59.5358 49.8069C63.1744 43.5046 63.293 36.1351 60.488 29.969C58.185 30.1924 55.9305 30.7815 53.8158 31.7115C54.8473 34.5494 55.4101 37.6122 55.4101 40.8069C55.4101 48.0873 52.4869 54.6848 47.7503 59.4901ZM49.3153 30.1392C47.6016 26.8493 45.1188 24.0222 42.1025 21.8951C39.0215 24.0677 36.4972 26.9707 34.7805 30.3512C37.5128 32.0985 39.94 34.3969 41.8792 37.1974C43.8979 34.2821 46.4455 31.911 49.3153 30.1392ZM43.8583 40.5853C45.6137 37.5913 47.9776 35.1721 50.7039 33.3949C51.4908 35.7219 51.917 38.2147 51.917 40.8069C51.917 46.7913 49.6452 52.2459 45.9103 56.3545C46.9209 51.1644 46.3096 45.6367 43.8583 40.5853ZM39.9 40.5853C38.2239 37.7259 35.9921 35.3908 33.42 33.6385C32.685 35.8954 32.2879 38.305 32.2879 40.8069C32.2879 46.4844 34.3326 51.6852 37.7316 55.7117C36.8912 50.7099 37.5496 45.4289 39.9 40.5853ZM41.8792 58.0618C43.1907 53.8915 43.2445 49.3425 41.8792 45.0299C40.5139 49.3425 40.568 53.8915 41.8792 58.0618ZM24.2225 49.8069C27.0802 54.7563 31.5938 58.1549 36.6661 59.7025C31.805 54.8802 28.7947 48.1949 28.7947 40.8069C28.7947 37.6774 29.3348 34.674 30.3269 31.8849C28.1016 30.8544 25.7135 30.206 23.2703 29.969C20.4655 36.1351 20.584 43.5046 24.2225 49.8069Z" fill="#2B1105"/>
</svg>
