<svg width="184" height="80" viewBox="0 0 184 80" fill="none" xmlns="http://www.w3.org/2000/svg">
<path d="M66.5078 27.2867V22.2295H91.9519V27.2867H82.1306V57.2214H76.431V27.2867H66.5078Z" fill="#2B1105"/>
<path d="M107.537 52.6242L108.962 52.471L109.064 56.6088C105.197 57.392 101.77 57.7835 98.7845 57.7835C95.0187 57.7835 92.3049 56.7447 90.6427 54.6676C89.0141 52.5901 88.1997 49.2697 88.1997 44.7063C88.1997 35.6475 91.8808 31.1182 99.2426 31.1182C106.367 31.1182 109.929 35.0175 109.929 42.8161L109.573 46.8007H93.7974C93.8315 48.9119 94.2893 50.4616 95.1716 51.4491C96.0534 52.4369 97.6992 52.9306 100.108 52.9306C102.517 52.9306 104.993 52.8283 107.537 52.6242ZM104.484 42.5097C104.484 39.9898 104.077 38.2359 103.263 37.2481C102.482 36.2265 101.142 35.7156 99.2426 35.7156C97.3429 35.7156 95.9519 36.2435 95.0696 37.2992C94.2215 38.355 93.7806 40.0916 93.7468 42.5097H104.484Z" fill="#2B1105"/>
<path d="M112.719 57.2216V31.6801H118.215V34.7451C121.098 32.872 123.982 31.6631 126.866 31.1182V36.6862C123.948 37.2652 121.454 38.0145 119.385 38.9338L118.266 39.3938V57.2216H112.719Z" fill="#2B1105"/>
<path d="M128.562 57.2216V31.6801H134.058V34.7451C136.941 32.872 139.825 31.6631 142.709 31.1182V36.6862C139.791 37.2652 137.297 38.0145 135.228 38.9338L134.108 39.3938V57.2216H128.562Z" fill="#2B1105"/>
<path d="M163.233 39.547V51.194C163.267 51.9432 163.454 52.5051 163.793 52.8796C164.166 53.2202 164.726 53.4415 165.472 53.5434L165.32 57.7835C162.402 57.7835 160.146 57.1534 158.551 55.8933C155.837 57.1534 153.106 57.7835 150.358 57.7835C145.304 57.7835 142.776 55.0763 142.776 49.6615C142.776 47.073 143.454 45.2 144.812 44.0421C146.202 42.8843 148.323 42.186 151.172 41.9478L157.737 41.3859V39.547C157.737 38.1846 157.432 37.2311 156.821 36.6862C156.244 36.1413 155.379 35.8689 154.226 35.8689C152.055 35.8689 149.341 36.0051 146.083 36.2776L144.455 36.3797L144.252 32.4463C147.95 31.5609 151.342 31.1182 154.429 31.1182C157.551 31.1182 159.79 31.7993 161.147 33.1615C162.538 34.4897 163.233 36.6181 163.233 39.547ZM151.834 45.881C149.493 46.0856 148.323 47.3626 148.323 49.7124C148.323 52.0623 149.357 53.237 151.427 53.237C153.123 53.237 154.921 52.9647 156.821 52.4196L157.737 52.1132V45.3192L151.834 45.881Z" fill="#2B1105"/>
<path fill-rule="evenodd" clip-rule="evenodd" d="M51.1136 19.2974C55.5417 19.2974 59.2364 22.4384 60.0908 26.614C60.2128 27.2105 60.277 27.8281 60.277 28.4607V51.9189C60.277 56.9796 56.1744 61.0822 51.1136 61.0822H27.6555C26.6536 61.0822 25.6893 60.9213 24.7869 60.6244C21.1312 59.4204 18.4922 55.9779 18.4922 51.9189V28.4607C18.4922 23.3999 22.5948 19.2974 27.6555 19.2974H51.1136ZM47.397 22.2296H51.1136C54.1504 22.2296 56.6798 24.4021 57.2326 27.2776C55.4692 27.4774 53.4532 27.2923 51.3244 26.38C49.4382 25.5715 48.1869 24.0737 47.397 22.2296ZM38.6966 22.2296H44.2661C45.1916 25.0151 46.9641 27.7015 50.1695 29.0752C52.7407 30.1771 55.1825 30.4327 57.3447 30.218V33.2142C54.4091 34.1435 51.4838 34.5196 49.1432 33.8345C47.9805 33.4942 46.6463 32.5907 45.2106 31.1695C43.7947 29.7677 42.3817 27.9647 41.0475 25.9939C40.2184 24.7692 39.4289 23.4935 38.6966 22.2296ZM35.329 22.2296H31.4489C31.6257 25.5478 30.8439 29.6007 27.9356 33.7065C26.0088 36.4267 23.7303 37.9228 21.4245 38.591V44.4368C22.8138 43.5931 24.4495 42.4407 26.3645 40.8847C30.8894 37.2082 34.4532 35.7455 37.1557 35.4779C39.8424 35.2119 41.7524 36.1438 42.5936 37.3218C43.4769 38.5583 43.9761 40.2154 44.1642 41.9631C44.3544 43.732 44.2386 45.705 43.7921 47.6631C42.9055 51.5556 40.6539 55.6073 36.5977 57.7915C36.3769 57.9106 36.154 58.0301 35.9293 58.15H40.4871C42.2695 55.887 43.6961 53.6386 44.2078 51.8767C44.7851 49.8875 45.0222 47.7789 45.2436 45.8077L45.244 45.8073V45.8066C45.3235 45.0988 45.4012 44.4082 45.4917 43.7474C45.649 42.6023 45.866 41.3891 46.3318 40.5142C46.5785 40.0512 46.9703 39.5359 47.6008 39.2383C48.2646 38.9249 48.9555 38.9634 49.5614 39.1653C51.2599 39.7316 53.5177 39.8489 57.3447 38.8901V36.2747C54.3934 37.1063 51.1756 37.4846 48.3192 36.6487C46.4763 36.1093 44.7268 34.8166 43.1478 33.2533C41.5489 31.6705 40.0161 29.7005 38.6196 27.6378C37.4251 25.8735 36.313 24.0154 35.329 22.2296ZM57.3447 41.9059C53.6988 42.7405 51.077 42.7057 48.8595 42.0195C48.6956 42.4033 48.5428 43.0836 48.3969 44.1462C48.3243 44.674 48.2572 45.274 48.1843 45.9227V45.9231C47.9578 47.9449 47.6781 50.4399 47.0235 52.6941C46.5221 54.4219 45.4371 56.3202 44.1477 58.15H47.0975C47.6418 56.7967 48.1429 55.508 48.5365 54.4249C48.9595 53.2608 49.2242 52.4236 49.3096 51.9977C49.4712 51.1887 49.7795 50.3182 50.5026 49.7013C51.2548 49.0592 52.1784 48.9214 53.0438 48.9653C53.896 49.009 54.8952 49.2384 56.0223 49.5617C56.4321 49.679 56.8726 49.8131 57.3447 49.9623V41.9059ZM57.2494 53.0108C56.4841 52.7623 55.8104 52.5515 55.2137 52.3803C54.1247 52.0677 53.3942 51.9192 52.895 51.894C52.5724 51.8775 52.442 51.9174 52.4046 51.9339C52.3833 51.9588 52.2792 52.1007 52.185 52.5728C52.0501 53.2465 51.7089 54.2801 51.2925 55.4262C50.9938 56.2487 50.6386 57.1761 50.2541 58.15H51.1136C54.1826 58.15 56.7333 55.9313 57.2494 53.0108ZM29.6025 58.15C31.5227 57.1596 33.4609 56.1501 35.2075 55.2096C38.2989 53.5452 40.1708 50.3582 40.9332 47.0117C41.3118 45.3502 41.402 43.7034 41.2487 42.2768C41.093 40.8287 40.6989 39.714 40.2074 39.026C40.1327 38.9212 39.3853 38.2039 37.4445 38.396C35.5193 38.5866 32.4856 39.6895 28.2136 43.1606C25.5394 45.3334 23.3015 46.8219 21.4245 47.806V51.1129C21.8872 50.6895 22.4097 50.3358 22.8925 50.0342C23.3845 49.7266 23.9205 49.4242 24.4473 49.1288L24.5778 49.0555C25.0699 48.7799 25.5583 48.5061 26.0433 48.2158C27.1042 47.5802 28.0582 46.9164 28.7918 46.1441C30.0618 44.807 31.8949 43.2115 33.6184 42.1222C34.4686 41.5845 35.3868 41.1091 36.2531 40.891C37.0662 40.6861 38.3267 40.6029 39.2053 41.6072C40.0414 42.5627 40.3878 43.9959 39.7789 45.856C39.2006 47.6231 37.748 49.8538 34.9402 52.7553C32.0258 55.7667 29.1113 57.2754 26.6541 57.7563C26.377 57.8105 26.1043 57.8516 25.8372 57.8805C26.4124 58.0558 27.023 58.15 27.6555 58.15H29.6025ZM21.4245 35.4886C22.8451 34.8994 24.2604 33.822 25.5428 32.0116C28.0749 28.4369 28.6868 24.9706 28.5125 22.2296H27.6555C24.2142 22.2296 21.4245 25.0194 21.4245 28.4607V35.4886ZM52.4016 51.9354C52.3947 51.9387 52.3917 51.9409 52.3921 51.9409C52.3925 51.9412 52.3939 51.9405 52.3965 51.9387L52.3983 51.9376L52.4016 51.9354ZM35.1851 44.6007C33.7085 45.5339 32.0593 46.9619 30.9178 48.1637C29.9105 49.2241 28.6882 50.0496 27.55 50.7313C27.0269 51.0443 26.5023 51.3383 26.0162 51.611L25.8815 51.6865C25.3487 51.9852 24.871 52.2554 24.4466 52.5207C23.5313 53.0925 23.1487 53.4774 23.0288 53.7233C22.9944 53.7941 22.9903 53.8344 23.001 53.896C23.016 53.9839 23.0791 54.1866 23.3303 54.5213L23.3547 54.5539L23.3772 54.5876C23.3786 54.5894 23.4117 54.6353 23.5166 54.6994C23.625 54.7657 23.7927 54.8405 24.031 54.8992C24.5099 55.0172 25.207 55.0513 26.0911 54.8783C27.8491 54.5345 30.2495 53.3857 32.8331 50.7159C35.5234 47.9361 36.6177 46.0873 36.9922 44.9441C37.215 44.2631 37.1692 43.8944 37.0981 43.706C37.0622 43.7125 37.0197 43.7217 36.9695 43.7345C36.546 43.8412 35.9348 44.1267 35.1851 44.6007ZM37.2557 43.692C37.255 43.6931 37.2462 43.6931 37.2315 43.6902C37.2488 43.6898 37.2565 43.6913 37.2557 43.692Z" fill="#2B1105"/>
</svg>
