<svg width="200" height="101" viewBox="0 0 200 101" fill="none" xmlns="http://www.w3.org/2000/svg">
<path d="M59.6119 37.0391C59.6119 40.3761 56.9068 43.0811 53.5699 43.0811C50.233 43.0811 47.5278 40.3761 47.5278 37.0391C47.5278 33.7022 50.233 30.9971 53.5699 30.9971C56.9068 30.9971 59.6119 33.7022 59.6119 37.0391Z" fill="#2B1105"/>
<path d="M50.313 63.6339C39.3223 63.6339 30.4126 54.7245 30.4126 43.7338V34.1816C41.4033 34.1816 50.3134 43.0913 50.3134 54.082L50.313 63.6339Z" fill="#2B1105"/>
<path d="M72.2033 40.5493C61.2129 40.5493 52.3032 49.459 52.3032 60.4497V70.0019C63.2941 70.0019 72.2033 61.092 72.2033 50.1015V40.5493Z" fill="#2B1105"/>
<path d="M109.001 36.9346V60.8942H104.195V45.3101L97.7762 60.8942H94.138L87.6849 45.3101V60.8942H82.8789V36.9346H88.3368L95.9571 54.7496L103.577 36.9346H109.001Z" fill="#2B1105"/>
<path d="M114.816 39.6119C113.969 39.6119 113.26 39.3487 112.688 38.8224C112.138 38.2732 111.864 37.5981 111.864 36.7971C111.864 35.9962 112.138 35.3326 112.688 34.8062C113.26 34.257 113.969 33.9824 114.816 33.9824C115.663 33.9824 116.36 34.257 116.91 34.8062C117.482 35.3326 117.768 35.9962 117.768 36.7971C117.768 37.5981 117.482 38.2732 116.91 38.8224C116.36 39.3487 115.663 39.6119 114.816 39.6119ZM117.184 41.8773V60.8941H112.379V41.8773H117.184Z" fill="#2B1105"/>
<path d="M131.097 41.6025C133.363 41.6025 135.194 42.3234 136.59 43.765C137.986 45.1839 138.684 47.1748 138.684 49.7378V60.8939H133.878V50.3899C133.878 48.8796 133.5 47.724 132.745 46.923C131.99 46.0993 130.96 45.6873 129.656 45.6873C128.329 45.6873 127.276 46.0993 126.498 46.923C125.743 47.724 125.366 48.8796 125.366 50.3899V60.8939H120.56V41.8772H125.366V44.2456C126.006 43.4218 126.819 42.781 127.803 42.3234C128.809 41.8428 129.908 41.6025 131.097 41.6025Z" fill="#2B1105"/>
<path d="M147.475 45.8249V55.0242C147.475 55.665 147.624 56.134 147.922 56.4315C148.242 56.7062 148.768 56.8435 149.501 56.8435H151.732V60.8942H148.711C144.661 60.8942 142.635 58.9259 142.635 54.9899V45.8249H139.069V41.8774H142.635V37.1748H147.475V41.8774V45.8249Z" fill="#2B1105"/>
<path d="M169.749 41.8774L157.976 69.887H152.861L156.98 60.4133L149.359 41.8774H154.749L159.657 55.1615L164.635 41.8774H169.749Z" fill="#2B1105"/>
</svg>
